<svg id="Layer_1" enable-background="new 0 0 24 24" height="50" viewBox="0 0 24 24" width="50" xmlns="http://www.w3.org/2000/svg"><g><g><path d="m9.689 15.215c-.128 0-.256-.049-.354-.146l-8.131-8.132c-.78-.78-.78-2.049 0-2.829.779-.779 2.049-.779 2.828 0l7.425 7.425c.195.195.195.512 0 .707s-.512.195-.707 0l-7.425-7.426c-.391-.389-1.025-.389-1.414 0-.188.189-.293.44-.293.707 0 .268.104.519.293.708l8.132 8.132c.195.195.195.512 0 .707-.098.098-.226.147-.354.147z"/></g><g><path d="m13.225 10.265c-.128 0-.256-.049-.354-.146l-3.182-3.182c-.391-.391-1.023-.391-1.414 0-.189.188-.293.439-.293.707 0 .267.104.518.293.707.195.195.195.512 0 .707s-.512.195-.707 0c-.378-.378-.586-.88-.586-1.414 0-.535.208-1.037.586-1.414.779-.779 2.049-.779 2.828 0l3.182 3.182c.195.195.195.512 0 .707-.098.097-.225.146-.353.146z"/></g><g><path d="m15.347 8.144c-.128 0-.256-.049-.354-.146l-2.476-2.476c-.391-.389-1.025-.389-1.414 0-.39.391-.39 1.024 0 1.415.195.195.195.512 0 .707s-.512.195-.707 0c-.378-.378-.586-.88-.586-1.415 0-.534.208-1.036.586-1.414.779-.779 2.049-.779 2.828 0l2.476 2.475c.195.195.195.512 0 .707-.097.098-.225.147-.353.147z"/></g><g><path d="m14.801 21.187c-.337 0-.678-.038-1.016-.115l-8.397-1.925c-.008-.001-.016-.002-.023-.004-.365-.078-.704-.264-.979-.539-.779-.779-.779-2.049 0-2.828.26-.26.576-.439.917-.522.01-.004.02-.006.03-.009l4.24-1.016c.27-.069.539.103.603.37.064.269-.102.538-.37.603l-4.211 1.008c-.014.004-.026.008-.04.011-.168.037-.328.128-.462.262-.39.39-.39 1.024 0 1.414.129.129.288.221.45.261.011.002.021.004.032.007l8.433 1.933c1.182.273 2.399-.079 3.257-.937l4.092-4.092c1.364-1.365 1.364-3.585 0-4.95l-6.01-6.011c-.392-.392-1.025-.39-1.415 0-.39.391-.39 1.024 0 1.415.195.195.195.512 0 .707s-.512.195-.707 0c-.78-.78-.78-2.049 0-2.829.778-.779 2.049-.78 2.829 0l6.01 6.011c1.755 1.755 1.755 4.609 0 6.364l-4.092 4.092c-.857.856-1.993 1.319-3.171 1.319z"/></g></g></svg>