<svg height="50pt" viewBox="-59 0 475 475.837" width="50pt" xmlns="http://www.w3.org/2000/svg"><path d="m288.160156 227.789062c0-17.878906 13.527344-32.367187 30.21875-32.367187h.671875c16.65625 0 30.179688 14.429687 30.21875 32.277344.140625 58.390625.050781 64.121093-.03125 151.332031-.050781 48.96875-37.121093 88.628906-82.828125 88.628906h-98.140625c-30.03125 0-57.71875-17.421875-72.351562-45.519531l-87.5-168.109375 9.140625-7.582031c18.929687-17.398438 47.398437-15.257813 63.871094 4.789062l24.488281 29.8125.140625-205.089843c.011718-17.871094 13.539062-32.351563 30.21875-32.351563h.011718c16.691407 0 30.21875 14.5 30.21875 32.378906v124.121094c.402344-17.5 13.769532-31.53125 30.199219-31.53125h.710938c16.691406 0 30.222656 14.492187 30.222656 32.371094v10.421875c0-17.882813 13.527344-32.371094 30.226563-32.371094h.070312c16.691406 0 30.222656 14.488281 30.222656 32.371094zm0 0" fill="#f7caa5"/><g fill="#083863"><path d="m319.050781 187.828125h-.671875c-9.125-.042969-17.9375 3.3125-24.71875 9.414063-5.488281-15.203126-19.441406-26.140626-35.792968-26.140626-10.027344.070313-19.597657 4.191407-26.542969 11.429688-6.378907-12.925781-19.175781-21.703125-33.90625-21.703125h-.710938c-7.871093-.132813-15.5625 2.386719-21.828125 7.15625v-91.996094c0-22.261719-17.332031-40.378906-38.414062-40.378906-21.0625 0-38.300782 18.101563-38.3125 40.34375l-.171875 182.777344-10.347657-12.566407c-9.070312-11.289062-22.421874-18.296874-36.859374-19.355468-14.152344-.972656-28.078126 3.953125-38.46875 13.609375l-8.992188 7.457031c-2.902344 2.402344-3.730469 6.507812-1.992188 9.851562l87.5 168.199219c16 30.734375 46.445313 49.910157 79.445313 49.910157h98.140625c50.03125 0 90.777344-43.429688 90.832031-96.707032.023438-24.152344.042969-42.101562.0625-56.601562.050781-38.25.066407-52.382813-.035156-94.613282-.046875-22.207031-17.191406-40.085937-38.214844-40.085937zm22.253907 134.632813c-.019532 14.5-.042969 32.492187-.066407 56.644531-.046875 44.464843-33.613281 80.722656-74.828125 80.722656h-98.140625c-27.015625 0-52.019531-15.875-65.253906-41.296875l-84.519531-162.421875 4.167968-3.480469c.101563-.085937.207032-.1875.308594-.277344 7.175782-6.757812 16.835938-10.226562 26.671875-9.578124 10.042969.765624 19.316407 5.675781 25.601563 13.546874l24.488281 29.808594c2.144531 2.613282 5.695313 3.59375 8.878906 2.457032 3.179688-1.140626 5.300781-4.152344 5.304688-7.53125l.140625-205.089844c.007812-13.429688 10.160156-24.355469 22.414062-24.355469s22.40625 10.9375 22.40625 24.378906v124.050781c0 .300782-.019531.597657-.019531.902344 0 .128906.019531.257813.019531.386719v53.050781c0 4.417969 3.582032 8 8 8 4.417969 0 8-3.582031 8-8v-54.128906c0-13.054688 9.898438-23.421875 21.828125-23.421875h.710938c12.253906 0 22.460937 10.683594 22.460937 24.121094v48.378906c0 4.421875 3.582032 8 8 8 4.417969 0 8-3.578125 8-8v-37.957031c0-13.4375 9.710938-24.371094 22.039063-24.371094 12.253906 0 21.960937 10.933594 21.960937 24.371094v35.808594c0 4.417968 3.582032 8 8 8 4.417969 0 8-3.582032 8-8v-19.390626c0-13.4375 10.246094-23.960937 22.5-23.960937h.671875c12.21875 0 22.1875 10.695313 22.21875 24.097656.101563 42.203125.082031 56.304688.035157 94.535157zm0 0"/><path d="m72.738281 79.441406c4.417969 0 8-3.582031 8-8 0-30.621094 24.820313-55.441406 55.441407-55.441406 30.617187 0 55.4375 24.820312 55.4375 55.441406 0 4.417969 3.582031 8 8 8 4.421874 0 8-3.582031 8-8 0-39.457031-31.984376-71.441406-71.4375-71.441406-39.457032 0-71.441407 31.984375-71.441407 71.441406 0 4.417969 3.582031 8 8 8zm0 0"/></g></svg>