<?xml version="1.0" encoding="utf-8"?>
<!-- Generator: Adobe Illustrator 18.0.0, SVG Export Plug-In . SVG Version: 6.00 Build 0)  -->
<!DOCTYPE svg PUBLIC "-//W3C//DTD SVG 1.1//EN" "http://www.w3.org/Graphics/SVG/1.1/DTD/svg11.dtd">
<svg version="1.1" id="Layer_1" xmlns="http://www.w3.org/2000/svg" xmlns:xlink="http://www.w3.org/1999/xlink" x="0px" y="0px"
	 viewBox="0 0 64 64" enable-background="new 0 0 64 64" xml:space="preserve">
<g>
	<g>
		<g>
			<path fill="#FF6A4D" d="M32,0c17.7,0,32,14.3,32,32S49.7,64,32,64S0,49.7,0,32S14.3,0,32,0z"/>
		</g>
	</g>
	<g>
		<g>
			<path fill="#FFFFFF" d="M41.8,10l8.2,7.8v34.8c0,0.8-0.7,1.4-1.5,1.4h-33c-0.8,0-1.5-0.6-1.5-1.4V11.4c0-0.8,0.7-1.4,1.5-1.4
				H41.8z"/>
		</g>
	</g>
	<g>
		<g>
			<polygon fill="#D3D5DD" points="50,17.8 41.8,17.8 41.8,10 			"/>
		</g>
	</g>
	<g>
		<g>
			<path fill="#D3D5DD" d="M45,21c0.5,0,1,0.5,1,1s-0.5,1-1,1H19c-0.6,0-1-0.5-1-1s0.4-1,1-1H45z"/>
		</g>
	</g>
	<g>
		<g>
			<path fill="#D3D5DD" d="M45,26c0.5,0,1,0.5,1,1s-0.5,1-1,1H19c-0.6,0-1-0.5-1-1s0.4-1,1-1H45z"/>
		</g>
	</g>
	<g>
		<g>
			<polygon fill="#37D196" points="41.5,33.9 28.2,48 21.5,41.4 23.4,39.4 28.2,44.2 39.6,32 			"/>
		</g>
	</g>
	<g>
		<g>
			<path fill="#D3D5DD" d="M36.8,16c0.5,0,1,0.5,1,1s-0.5,1-1,1H19c-0.6,0-1-0.5-1-1s0.4-1,1-1H36.8z"/>
		</g>
	</g>
</g>
</svg>
